<?xml version="1.0" encoding="UTF-8" standalone="no"?>
<!-- Created with Inkscape (http://www.inkscape.org/) -->

<svg
   xmlns:dc="http://purl.org/dc/elements/1.1/"
   xmlns:cc="http://creativecommons.org/ns#"
   xmlns:rdf="http://www.w3.org/1999/02/22-rdf-syntax-ns#"
   xmlns:svg="http://www.w3.org/2000/svg"
   xmlns="http://www.w3.org/2000/svg"
   xmlns:sodipodi="http://sodipodi.sourceforge.net/DTD/sodipodi-0.dtd"
   xmlns:inkscape="http://www.inkscape.org/namespaces/inkscape"
   id="svg3355"
   version="1.1"
   inkscape:version="0.91 r13725"
   xml:space="preserve"
   width="143.14999"
   height="89.646004"
   viewBox="0 0 143.14999 89.646004"
   sodipodi:docname="BwInf-Kopf.svg"><metadata
     id="metadata3361"><rdf:RDF><cc:Work
         rdf:about=""><dc:format>image/svg+xml</dc:format><dc:type
           rdf:resource="http://purl.org/dc/dcmitype/StillImage" /><dc:title></dc:title></cc:Work></rdf:RDF></metadata><defs
     id="defs3359"><clipPath
       clipPathUnits="userSpaceOnUse"
       id="clipPath3369"><path
         d="m 0,71.717 114.52,0 L 114.52,0 0,0 0,71.717 Z"
         id="path3371"
         inkscape:connector-curvature="0" /></clipPath></defs><sodipodi:namedview
     pagecolor="#ffffff"
     bordercolor="#666666"
     borderopacity="1"
     objecttolerance="10"
     gridtolerance="10"
     guidetolerance="10"
     inkscape:pageopacity="0"
     inkscape:pageshadow="2"
     inkscape:window-width="1920"
     inkscape:window-height="1061"
     id="namedview3357"
     showgrid="false"
     inkscape:zoom="8"
     inkscape:cx="62.097227"
     inkscape:cy="41.085273"
     inkscape:window-x="0"
     inkscape:window-y="0"
     inkscape:window-maximized="0"
     inkscape:current-layer="g3367" /><g
     id="g3363"
     inkscape:groupmode="layer"
     inkscape:label="BuWett-Kopf-Mono (1)"
     transform="matrix(1.25,0,0,-1.25,0,89.646)"><g
       id="g3365"><g
         id="g3367"
         clip-path="url(#clipPath3369)"><g
           id="g3373"
           transform="translate(90.4316,48.5313)"><path
             d="m 0,0 -15.631,-3.109 c -8.48,-1.028 -23.392,-4.469 -27.601,-5.454 -2.291,-0.222 -8.276,4.313 -4.012,7.461 l 16.377,1.758 27.123,3.082 C -0.688,4.039 0.752,1.922 0,0"
             style="fill:#cccccc;fill-opacity:1;fill-rule:nonzero;stroke:none"
             id="path3375"
             inkscape:connector-curvature="0" /></g><g
           id="g3377"
           transform="translate(90.4316,48.5313)"><path
             d="m 0,0 c -0.332,-0.852 -1.096,-1.66 -2.336,-2.211 -16.4,-7.211 -22.676,-12.461 -32.137,-23.492 -3.478,-4.059 -9.175,0.918 -5.699,4.789 5.465,6.09 14.111,13.574 24.541,17.805 L 0,0 Z"
             style="fill:#cccccc;fill-opacity:1;fill-rule:nonzero;stroke:none"
             id="path3379"
             inkscape:connector-curvature="0" /></g><g
           id="g3381"
           transform="translate(19.3242,4.0469)"><path
             d="m 0,0 c 1.959,-1.605 4.123,-2.973 6.447,-4.047 l -14.148,0 -0.223,23.789 -7.205,0 c -2.248,0 -4.123,1.813 -4.123,4.11 0.215,21.035 17.328,37.996 38.408,37.996 9.352,0 17.924,-3.344 24.588,-8.895 11.459,4.18 24.027,7.098 35.031,8.797 l 0.913,0.164 c -5.868,1.125 -12.024,1.789 -12.725,1.77 -3.475,-0.106 -3.395,3.214 -3.52,3.671 0.604,-0.058 2.713,-0.738 3.084,0.067 8.08,-0.727 20,-2.766 24.342,-3.715 1.367,-0.301 4.027,-1.488 4.027,-1.488 l -0.734,0.008 c 0,0 -0.711,-0.586 0.258,-1.243 1.125,-0.765 1.129,-0.996 -0.68,-1.832 -4.996,-2.3 -12.785,-5.757 -18.861,-10.394 -2.647,0.476 -4.566,2.211 -3.004,3.328 4.256,3.023 10.496,5.984 13.021,7.219 -0.021,-0.008 -19.285,-3.278 -36.839,-10.563 0.699,-0.797 1.371,-1.625 2.004,-2.484 l -9.821,-1.117 -16.377,-1.758 0.325,0.219 c 3.232,2.074 6.824,3.976 10.648,5.722 -4.572,2.778 -9.94,4.371 -15.68,4.371 -15.277,0 -27.912,-11.316 -29.976,-26.023 l 6.732,0.004 C -1.816,27.676 0,25.859 0,23.586 l 0,-12.59 1.256,0 c 7.224,0 13.084,5.856 13.084,13.074 0,4.809 7.207,4.809 7.207,0 C 21.547,12.867 12.455,3.789 1.256,3.789 L 0,3.789 0,0 Z m 53.291,41.078 0.27,-0.527 c -2.514,-1.137 -4.913,-2.449 -7.182,-3.879 -0.486,1.004 -1.031,1.976 -1.623,2.914 2.988,0.582 5.951,1.113 8.535,1.492 m 2.305,-5.445 c 1.283,-3.836 1.98,-7.938 1.98,-12.203 0,-10.77 -4.428,-20.5 -11.56,-27.477 l -14.225,0 c 10.404,4.766 17.633,15.27 17.633,27.477 0,2.523 -0.309,4.976 -0.889,7.32 2.149,1.719 4.449,3.32 7.061,4.883 M 2.283,36.48 c 0,2.907 2.362,5.27 5.27,5.27 2.91,0 5.267,-2.363 5.267,-5.27 0,-2.91 -2.357,-5.269 -5.267,-5.269 -2.908,0 -5.27,2.359 -5.27,5.269"
             style="fill:#ececec;fill-opacity:1;fill-rule:nonzero;stroke:none"
             id="path3383"
             inkscape:connector-curvature="0" /></g></g></g></g></svg>